<?xml version="1.0" encoding="UTF-8"?>
<svg width="100px" height="18px" viewBox="0 0 100 18" version="1.1" xmlns="http://www.w3.org/2000/svg" xmlns:xlink="http://www.w3.org/1999/xlink">
    <title>logo</title>
    <defs>
        <polygon id="path-1" points="0 17.3872004 100 17.3872004 100 0 0 0"></polygon>
    </defs>
    <g id="互动直播" stroke="none" stroke-width="1" fill="none" fill-rule="evenodd">
        <g id="直播间列表" transform="translate(-24.000000, -20.000000)">
            <g id="左边" transform="translate(24.000000, 16.000000)">
                <g id="logo" transform="translate(0.000000, 4.000000)">
                    <path d="M81.5600034,0.597219458 C81.8045091,0.597219458 82.0035254,0.796235749 82.0035254,1.04074148 L82.0035254,13.678276 C82.0035254,14.2696386 81.8261166,14.7478464 81.4752793,15.098115 C81.124442,15.4478151 80.6411168,15.6252239 80.0372445,15.6252239 L78.2995479,15.6252239 L78.2995479,13.7214909 L79.1098286,13.7214909 C79.5778012,13.7214909 79.8348165,13.4440053 79.8348165,12.9407784 L79.8348165,2.49469764 L79.8348165,2.40940494 L79.7495238,2.40940494 L77.4875615,2.40940494 L77.4022688,2.40940494 L77.4022688,2.49469764 L77.4022688,16.7761067 L75.2335598,16.7761067 L75.2335598,0.597219458 L81.5600034,0.597219458" id="Fill-1" fill="#FFFFFF"></path>
                    <path d="M68.7577403,8.45569044 L68.7577403,6.30915759 L68.7577403,6.2238649 L68.843033,6.2238649 L71.8061013,6.2238649 L71.8919626,6.2238649 L71.8919626,6.30915759 L71.8919626,8.45569044 L71.8919626,8.54098314 L71.8061013,8.54098314 L68.843033,8.54098314 L68.7577403,8.54098314 L68.7577403,8.45569044 Z M68.7577403,4.49242317 L68.7577403,2.34702755 L68.7577403,2.26116624 L68.843033,2.26116624 L71.8061013,2.26116624 L71.8919626,2.26116624 L71.8919626,2.34702755 L71.8919626,4.49242317 L71.8919626,4.57771586 L71.8061013,4.57771586 L68.843033,4.57771586 L68.7577403,4.57771586 L68.7577403,4.49242317 Z M73.3533108,11.3522304 L71.1283086,11.3522304 L71.7338868,14.0224604 L71.7549257,14.1140079 L71.6616723,14.1259489 L68.8538367,14.4870213 L68.7577403,14.4995309 L68.7577403,14.4028658 L68.7577403,10.2906206 L68.7577403,10.2047593 L68.843033,10.2047593 L74.0606715,10.2047593 L74.0606715,0.597390043 L66.5896,0.597390043 L66.5890314,16.6392403 L72.0909789,15.9301737 L72.1677423,15.9199386 L72.1848008,15.9955648 L72.3627783,16.7768459 L74.5894863,16.7768459 L73.3533108,11.3522304 Z" id="Fill-3" fill="#FFFFFF"></path>
                    <polygon id="Fill-5" fill="#FFFFFF" points="94.3927444 4.58254911 93.1986467 11.7135871 93.1821568 11.8130953 93.2833708 11.8130953 94.8885793 11.8130953 94.9892247 11.8130953 94.9727348 11.7135871 94.3319023 7.86404344 96.2288119 7.86404344 97.1641884 13.4836949 91.0020755 13.4836949 92.4878742 4.58254911"></polygon>
                    <mask id="mask-2" fill="white">
                        <use xlink:href="#path-1"></use>
                    </mask>
                    <g id="Clip-8"></g>
                    <polygon id="Fill-7" fill="#FFFFFF" mask="url(#mask-2)" points="89.0387513 16.7634265 90.5006681 16.7634265 90.5006681 4.87305604 89.0387513 4.87305604"></polygon>
                    <path d="M94.5682199,0.277940466 L94.240696,1.39982373 L94.2082848,1.50899838 L94.3220084,1.50899838 L99.5555682,1.50899838 C99.8006425,1.50899838 100.000227,1.70801467 100.000227,1.9525204 L100.000227,13.9446735 C100.000227,14.8186393 99.756859,15.5174708 99.277514,16.0206977 C98.7981691,16.5222187 98.1323174,16.7769596 97.2975862,16.7769596 L93.5583544,16.7769596 L93.5583544,14.9261081 L96.5100503,14.9255395 C97.1975095,14.9255395 97.7604412,14.3654508 97.7649902,13.6785603 L97.8315185,3.36439883 L97.8320871,3.27853751 L97.7462258,3.27853751 L91.4300173,3.27853751 L92.3062576,0.277940466 L94.5682199,0.277940466" id="Fill-9" fill="#FFFFFF" mask="url(#mask-2)"></path>
                    <polygon id="Fill-10" fill="#FFFFFF" mask="url(#mask-2)" points="83.8563671 16.7634265 85.3182839 16.7634265 85.3182839 4.87305604 83.8563671 4.87305604"></polygon>
                    <polygon id="Fill-11" fill="#FFFFFF" mask="url(#mask-2)" points="88.2440508 0.277940466 88.2440508 2.00767634 88.2440508 2.09296904 88.3287749 2.09296904 90.6441873 2.09296904 90.6441873 3.86250817 88.3287749 3.86250817 88.2440508 3.86250817 88.2440508 3.94780087 88.2440508 16.7769596 86.0753419 16.7769596 86.0753419 3.94780087 86.0753419 3.86250817 85.9894806 3.86250817 83.6752054 3.86250817 83.6752054 2.09296904 85.9894806 2.09296904 86.0753419 2.09296904 86.0753419 2.00767634 86.0753419 0.277940466"></polygon>
                    <path d="M38.639354,-0.00022744719 C39.0117988,-0.00022744719 39.391067,0.0236545077 39.7657863,0.0708497996 C42.9892816,0.476274415 45.8221363,2.81101982 46.8740795,5.90714468 L43.5937225,5.90714468 C42.5838569,4.10803742 40.6818298,2.9941148 38.6080801,2.9941148 C38.2959088,2.9941148 37.9808944,3.01970261 37.6709976,3.07030961 C35.3146448,3.45696983 33.3989708,5.37264379 33.0123106,7.72899667 C32.7075313,9.58780883 33.2875217,11.4085236 34.6033037,12.7254428 C35.6802661,13.8018366 37.1109089,14.3949052 38.6313934,14.3949052 C38.9520939,14.3949052 39.2773434,14.3687488 39.5986126,14.3158673 C41.4432093,14.0133625 43.0182811,12.7959514 43.813209,11.0605294 L43.8706394,10.9348648 L43.9627555,10.733574 L43.7415631,10.733574 L39.4575953,10.733574 L39.4575953,8.09973559 L47.3193074,8.09916697 L47.3232877,8.30898701 C47.3221505,8.34424132 47.3232877,8.41531857 47.3261308,8.48639581 C47.3278367,8.52733631 47.3289739,8.56600233 47.3284053,8.58874705 C47.2988372,10.2877776 48.0175703,11.8992409 49.3015097,13.0097518 C50.3335513,13.9019134 51.6607057,14.3931993 53.0373298,14.3931993 C53.35405,14.3931993 53.6741819,14.3676115 53.9886276,14.3158673 C56.3444119,13.9292071 58.2600859,12.0135331 58.6473147,9.65661161 C58.9520939,7.79779945 58.3721036,5.9770847 57.0563216,4.6613027 C55.9787905,3.58434026 54.5487163,2.99127171 53.0282319,2.99127171 C52.7069627,2.99127171 52.3817132,3.01799676 52.0604441,3.07030961 C50.7679754,3.28240412 49.5488585,3.98464731 48.6771671,5.01043414 C48.317232,4.02672504 47.8151423,3.10556393 47.1822705,2.2662838 C48.7840673,0.803798368 50.8583857,-0.00022744719 53.038467,-0.00022744719 C53.4097745,-0.00022744719 53.785631,0.0236545077 54.1552327,0.0708497996 C58.009894,0.556449549 61.1606061,3.70716174 61.6473431,7.56182299 C61.9885139,10.2729935 61.0866858,12.926165 59.1721491,14.8412703 C57.5299804,16.4828704 55.3453501,17.386973 53.0208398,17.386973 C52.6466892,17.386973 52.267421,17.363091 51.8927018,17.3158957 C49.5681915,17.0224888 47.4227959,15.7493532 46.008643,13.8240127 L45.9369971,13.7262104 L45.8221363,13.5681346 L45.7078441,13.7262104 L45.6361982,13.8234441 C43.9781082,16.0882495 41.4278566,17.386973 38.6404913,17.386973 C38.2640662,17.386973 37.8813863,17.363091 37.5032553,17.3158957 C33.6474569,16.8297273 30.4973133,13.6795838 30.0117135,9.82492253 C29.6705427,7.11318341 30.5723709,4.46001194 32.4869076,2.54604384 C34.1285077,0.903875131 36.3137065,-0.00022744719 38.639354,-0.00022744719" id="Fill-12" fill="#FFFFFF" mask="url(#mask-2)"></path>
                    <polygon id="Fill-13" fill="#FFFFFF" mask="url(#mask-2)" points="28.2254002 0.600005686 28.2254002 3.31231342 18.9961618 3.31231342 18.9103005 3.31231342 18.9103005 3.3970375 18.9103005 7.23065988 18.9103005 7.31595258 18.9961618 7.31595258 26.8214824 7.31595258 26.8214824 10.0930828 18.9961618 10.0930828 18.9103005 10.0930828 18.9103005 10.1789441 18.9103005 13.9801552 18.9103005 14.0660165 18.9961618 14.0660165 28.2254002 14.0660165 28.2254002 16.7561482 15.7709607 16.7561482 15.7709607 0.600005686"></polygon>
                    <polygon id="Fill-14" fill="#FFFFFF" mask="url(#mask-2)" points="13.1259205 0.599721377 13.1225087 3.06126859 4.66943394 13.9349501 4.56196514 14.0725557 4.73653086 14.0725557 13.3317602 14.0725557 13.3317602 16.7615501 -5.68617974e-05 16.7615501 -5.68617974e-05 14.628664 8.88744207 3.44736019 8.99718534 3.30918602 8.82034515 3.30918602 0.236488215 3.30918602 0.236488215 0.599721377"></polygon>
                </g>
            </g>
        </g>
    </g>
</svg>