<?xml version="1.0" encoding="UTF-8"?>
<svg width="23px" height="23px" viewBox="0 0 23 23" version="1.1" xmlns="http://www.w3.org/2000/svg" xmlns:xlink="http://www.w3.org/1999/xlink">
    <title>icon_fasong备份</title>
    <g id="互动直播" stroke="none" stroke-width="1" fill="none" fill-rule="evenodd">
        <g id="状态样式" transform="translate(-224.000000, -436.000000)">
            <g id="编组-4" transform="translate(209.000000, 433.000000)">
                <g id="icon_fasong备份" transform="translate(15.500000, 3.500000)">
                    <rect id="矩形" opacity="0" x="0" y="0" width="22" height="22"></rect>
                    <path d="M3.76963709,9.49058523 L17.8918762,3.78279006 C18.0451074,3.72084454 18.2212548,3.74799981 18.3471333,3.85297347 C18.4730117,3.95794713 18.527104,4.12279538 18.486936,4.27902747 L14.9692765,17.9276862 C14.932524,18.0697828 14.8230647,18.1835894 14.6794655,18.2290073 C14.5358664,18.2744253 14.3782804,18.2450806 14.2622313,18.1513125 L11.207884,15.682904 C11.0332257,15.5419709 10.7765765,15.553517 10.616118,15.7095262 L9.04942004,17.2280553 C8.92385586,17.3491248 8.73561697,17.3852197 8.57200151,17.3196004 C8.40838606,17.2539811 8.30139816,17.0994833 8.30065481,16.9277571 L8.30065481,13.7181872 C8.30056319,13.605183 8.34677147,13.4967747 8.42910868,13.4168242 L14.8002005,7.23728399 L7.27851342,12.7097391 C7.11561561,12.8280688 6.89024041,12.8223394 6.73395689,12.6958956 L3.65765166,10.2104489 C3.53993515,10.1150875 3.48203991,9.96706782 3.50492307,9.8199705 C3.52780623,9.67287318 3.62815209,9.54801221 3.76963709,9.49058523 Z" id="路径" fill="#FFFFFF" fill-rule="nonzero" opacity="0.5"></path>
                </g>
            </g>
        </g>
    </g>
</svg>