<?xml version="1.0" encoding="UTF-8"?>
<svg width="22px" height="22px" viewBox="0 0 22 22" version="1.1" xmlns="http://www.w3.org/2000/svg" xmlns:xlink="http://www.w3.org/1999/xlink">
    <title>icon_yijianfnakui_normal</title>
    <g id="互动直播" stroke="none" stroke-width="1" fill="none" fill-rule="evenodd">
        <g id="图标" transform="translate(-196.000000, -178.000000)">
            <g id="icon_yijianfnakui_normal" transform="translate(196.000000, 178.000000)">
                <g id="编组-4备份" fill="#ACA5B4" opacity="0">
                    <rect id="矩形" x="0" y="0" width="22" height="22"></rect>
                </g>
                <g id="编组-4" transform="translate(3.500000, 4.000000)" stroke="#ACA5B4" stroke-width="1.5">
                    <g id="编组-34">
                        <path d="M11.8448276,0 C12.3971123,-1.08250786e-15 12.8448276,0.44771525 12.8448276,1 L12.844,7.984 L8.06498403,9.52208996 C7.90561545,9.573381 7.73658639,9.58363921 7.57335362,9.55286458 L7.45225735,9.52208996 L2.5,7.928 L2.5,1 C2.5,0.44771525 2.94771525,1.01453063e-16 3.5,0 L11.8448276,0 Z" id="形状结合"></path>
                        <path d="M1.30636334,7.67043877 L7.19363666,9.56519341 C7.39284739,9.62930721 7.60715261,9.62930721 7.80636334,9.56519341 L13.6936367,7.67043877 C14.2193646,7.50123898 14.7827149,7.79026215 14.9519147,8.31599009 C14.9837765,8.41498945 15,8.51835318 15,8.62235343 L15,13.5258621 C15,14.0781468 14.5522847,14.5258621 14,14.5258621 L1,14.5258621 C0.44771525,14.5258621 4.47140469e-16,14.0781468 0,13.5258621 L0,8.62235343 C-6.76353751e-17,8.07006868 0.44771525,7.62235343 1,7.62235343 C1.10400025,7.62235343 1.20736398,7.63857691 1.30636334,7.67043877 Z" id="矩形"></path>
                    </g>
                    <line x1="5" y1="2.8125" x2="10.3125" y2="2.8125" id="直线-9" stroke-linecap="round"></line>
                    <line x1="5" y1="5.3125" x2="8.125" y2="5.3125" id="直线-9备份" stroke-linecap="round"></line>
                </g>
            </g>
        </g>
    </g>
</svg>